# Blender v2.78 (sub 0) OBJ File: ''
# www.blender.org
mtllib book2.mtl
o book
v 0.535725 0.033458 -0.135564
v 0.531604 1.392510 -0.094754
v 0.559162 1.424771 -0.089263
v 0.531740 1.397843 -0.280805
v 0.535619 0.038991 -0.321749
v 0.563293 0.006861 -0.327087
v 0.506052 0.052045 -0.357402
v 0.559128 1.431523 -0.315110
v 0.563429 0.007803 -0.357933
v 0.563434 0.000013 -0.099850
v 0.559133 1.423733 -0.057026
v -0.342649 0.030853 -0.135854
v 0.563485 0.001032 -0.132158
v -0.338387 -0.001495 -0.132350
v -0.329323 -0.002418 -0.100178
v -0.376706 -0.002825 -0.100125
v -0.334529 0.041637 -0.098104
v -0.378963 0.041632 -0.098255
v -0.338305 1.376717 -0.057855
v -0.382739 1.376711 -0.058005
v -0.333517 1.421037 -0.057246
v -0.380872 1.420961 -0.057274
v -0.395096 1.421890 -0.089511
v -0.346528 1.389704 -0.094909
v -0.342823 1.422160 -0.089553
v -0.342378 0.036250 -0.321877
v -0.338533 0.004296 -0.327419
v -0.346764 1.395520 -0.281131
v 0.559150 1.430627 -0.284305
v -0.342698 1.428081 -0.284568
v -0.333921 1.428980 -0.315422
v -0.381170 1.428638 -0.315342
v -0.338665 1.384454 -0.317455
v -0.383011 1.384552 -0.317437
v -0.334619 0.049506 -0.357649
v -0.378969 0.049254 -0.357621
v -0.329621 0.005260 -0.358245
v -0.376870 0.004918 -0.358165
v -0.390829 0.004046 -0.327308
v -0.390931 -0.001895 -0.132363
v -0.395242 1.427682 -0.284582
v 0.525469 1.393750 -0.141227
v 0.529479 0.034615 -0.182135
v 0.531754 1.395375 -0.187806
v 0.535739 0.036257 -0.228643
v 0.525460 1.396568 -0.234236
v 0.529629 0.037479 -0.275186
v -0.358382 1.391059 -0.141498
v -0.357599 1.392614 -0.187986
v -0.358391 1.393877 -0.234506
v -0.354125 0.032073 -0.182280
v -0.353612 0.033498 -0.228823
v -0.354246 0.034806 -0.275387
v -0.350467 0.002717 -0.278589
v -0.398674 0.002634 -0.278651
v -0.399614 0.046525 -0.274277
v -0.392447 0.048123 -0.320056
v -0.403497 1.381868 -0.234135
v -0.396247 1.383222 -0.279736
v -0.403109 1.426289 -0.235854
v -0.354502 1.426218 -0.235701
v -0.354550 1.423422 -0.138234
v -0.403051 1.423229 -0.138279
v -0.403550 1.379110 -0.142658
v -0.396330 1.377685 -0.096851
v -0.399615 0.044077 -0.182949
v -0.392529 0.042588 -0.137171
v -0.398750 -0.000492 -0.181103
v -0.350492 -0.000098 -0.181192
v 0.502004 1.386993 -0.317207
v 0.506006 0.044111 -0.097885
v 0.502095 1.379125 -0.057663
v -0.354447 1.424843 -0.186988
v -0.407280 1.424680 -0.186996
v -0.407180 1.380583 -0.188439
v -0.403026 0.045370 -0.228527
v -0.403197 0.001141 -0.230025
v -0.350253 0.001388 -0.229920
vt 0.0212 0.3734
vt 0.0196 0.9284
vt 0.0446 0.9294
vt 0.9795 0.9235
vt 0.9800 0.3721
vt 0.9537 0.3727
vt 0.9061 0.3992
vt 0.9271 0.9253
vt 0.9284 0.3739
vt 0.0706 0.3731
vt 0.0729 0.9300
vt 0.4002 0.3233
vt 0.0709 0.3222
vt 0.0705 0.3474
vt 0.4004 0.3480
vt 0.4006 0.3718
vt 0.4250 0.3713
vt 0.4009 0.3986
vt 0.4251 0.3996
vt 0.3992 0.9026
vt 0.4253 0.9023
vt 0.3999 0.9282
vt 0.4251 0.9282
vt 0.4255 0.9538
vt 0.0716 0.9785
vt 0.4004 0.9792
vt 0.3996 0.9543
vt 0.0717 0.9547
vt 0.0468 0.3730
vt 0.9295 0.3211
vt 0.6016 0.3223
vt 0.6008 0.3478
vt 0.9291 0.3473
vt 0.5997 0.9772
vt 0.9270 0.9771
vt 0.9268 0.9522
vt 0.5990 0.9514
vt 0.6006 0.9252
vt 0.5797 0.9253
vt 0.6008 0.9035
vt 0.5797 0.9028
vt 0.6011 0.3987
vt 0.5784 0.3989
vt 0.6009 0.3726
vt 0.5775 0.3729
vt 0.5771 0.3472
vt 0.9541 0.9249
vt 0.4252 0.3483
vt 0.5799 0.9534
vt 0.3783 0.2353
vt 0.6424 0.2353
vt 0.3662 0.1982
vt 0.6412 0.1979
vt 0.3603 0.1606
vt 0.6387 0.1608
vt 0.3574 0.1235
vt 0.6389 0.1232
vt 0.3583 0.0861
vt 0.6380 0.0861
vt 0.0840 0.2342
vt 0.0806 0.1974
vt 0.0809 0.1607
vt 0.0806 0.1239
vt 0.0840 0.0871
vt 0.8912 0.2342
vt 0.9047 0.1975
vt 0.9117 0.1607
vt 0.9154 0.1239
vt 0.9122 0.0872
vt 0.5519 0.3232
vt 0.5261 0.3220
vt 0.5268 0.3457
vt 0.5531 0.3465
vt 0.5265 0.3737
vt 0.5528 0.3726
vt 0.5282 0.3993
vt 0.5534 0.3999
vt 0.5276 0.9016
vt 0.5512 0.9027
vt 0.5261 0.9270
vt 0.5511 0.9276
vt 0.5259 0.9529
vt 0.5506 0.9536
vt 0.5254 0.9788
vt 0.5526 0.9770
vt 0.4487 0.9785
vt 0.4744 0.9780
vt 0.4738 0.9538
vt 0.4485 0.9530
vt 0.4751 0.9290
vt 0.4489 0.9290
vt 0.4745 0.9023
vt 0.4487 0.9023
vt 0.4751 0.3978
vt 0.4520 0.3987
vt 0.4756 0.3734
vt 0.4505 0.3728
vt 0.4763 0.3455
vt 0.4511 0.3448
vt 0.4768 0.3217
vt 0.4512 0.3213
vt 0.9056 0.9029
vt 0.0963 0.3979
vt 0.0977 0.9021
vt 0.4996 0.9781
vt 0.4996 0.9536
vt 0.5006 0.9273
vt 0.5016 0.9020
vt 0.5011 0.3975
vt 0.5010 0.3733
vt 0.5010 0.3474
vt 0.5009 0.3218
vn 0.3534 -0.2883 -0.8899
vn 0.3518 0.3451 -0.8701
vn 0.5890 0.6108 -0.5291
vn 0.3528 0.2912 0.8892
vn 0.3531 -0.3427 0.8706
vn 0.5905 -0.6068 0.5321
vn 0.0051 0.0231 -0.9997
vn 0.5771 0.5970 -0.5572
vn 0.5821 -0.5591 -0.5903
vn 0.5797 -0.5944 0.5574
vn 0.5769 0.5621 0.5927
vn 0.5416 -0.5779 -0.6105
vn 0.5925 -0.5729 -0.5664
vn 0.2680 -0.8689 -0.4161
vn 0.0041 -0.7334 0.6798
vn -0.4191 -0.6389 0.6451
vn -0.0011 -0.0379 0.9993
vn -0.5783 -0.0337 0.8151
vn -0.0018 -0.0218 0.9998
vn -0.5840 -0.0070 0.8117
vn -0.0031 0.6893 0.7245
vn -0.4400 0.5882 0.6785
vn -0.7071 0.6664 0.2366
vn 0.5351 0.6171 -0.5770
vn 0.2603 0.8973 -0.3565
vn 0.5380 -0.6163 0.5751
vn 0.2656 -0.8950 0.3584
vn 0.5372 0.5782 0.6141
vn 0.5888 0.5775 0.5655
vn 0.2569 0.8722 0.4162
vn -0.0038 0.7328 -0.6804
vn -0.4221 0.6344 -0.6476
vn -0.0003 0.0381 -0.9993
vn -0.5746 0.0303 -0.8179
vn -0.0003 0.0218 -0.9998
vn -0.5796 0.0030 -0.8149
vn 0.0025 -0.6911 -0.7227
vn -0.4327 -0.5949 -0.6774
vn -0.7015 -0.6713 -0.2391
vn -0.6973 -0.6941 0.1792
vn -0.7056 0.6845 -0.1836
vn 0.6733 0.7390 0.0237
vn 0.6755 -0.7370 -0.0220
vn 0.7320 0.6810 0.0204
vn 0.7374 -0.6752 -0.0195
vn 0.6722 0.7402 0.0193
vn 0.6772 -0.7355 -0.0224
vn 0.7626 0.6434 -0.0671
vn 0.7383 0.6741 0.0240
vn 0.7642 0.6372 0.1001
vn 0.7646 -0.6362 -0.1026
vn 0.7417 -0.6704 -0.0220
vn 0.7652 -0.6401 0.0690
vn 0.7094 -0.7014 0.0692
vn -0.7055 -0.7003 -0.1089
vn -0.9934 -0.0053 -0.1145
vn -0.9680 -0.0027 -0.2508
vn -0.9930 0.0018 -0.1185
vn -0.9704 -0.0001 -0.2416
vn -0.7091 0.7019 -0.0672
vn 0.7121 0.6939 0.1068
vn 0.7083 0.7022 -0.0718
vn -0.7113 0.6944 0.1084
vn -0.9931 -0.0028 0.1172
vn -0.9689 -0.0042 0.2475
vn -0.9933 -0.0082 0.1149
vn -0.9711 -0.0090 0.2386
vn -0.7020 -0.7090 0.0667
vn 0.7111 -0.6947 -0.1085
vn 0.0048 0.0367 -0.9993
vn 0.0038 -0.0359 0.9993
vn 0.0043 -0.0237 0.9997
vn 0.7416 0.6704 0.0237
vn -0.7272 0.6860 0.0228
vn -1.0000 -0.0017 0.0003
vn -1.0000 -0.0019 -0.0022
vn -0.7256 -0.6877 -0.0254
vn 0.7470 -0.6645 -0.0217
usemtl book
s 1
f 1/1/1 2/2/2 3/3/3
f 4/4/4 5/5/5 6/6/6
f 7/7/7 8/8/8 9/9/9
f 10/10/10 3/3/3 11/11/11
f 12/12/12 1/13/1 13/14/13
f 12/12/12 13/14/13 14/15/14
f 14/15/14 13/14/13 15/16/15
f 14/15/14 15/16/15 16/17/16
f 16/17/16 15/16/15 17/18/17
f 16/17/16 17/18/17 18/19/18
f 18/19/18 17/18/17 19/20/19
f 18/19/18 19/20/19 20/21/20
f 20/21/20 19/20/19 21/22/21
f 20/21/20 21/22/21 22/23/22
f 22/23/22 21/22/21 23/24/23
f 2/25/2 24/26/24 25/27/25
f 2/25/2 25/27/25 3/28/3
f 3/28/3 25/27/25 11/11/11
f 3/3/3 10/10/10 13/29/13
f 13/29/13 1/1/1 3/3/3
f 5/30/5 26/31/26 27/32/27
f 5/30/5 27/32/27 6/33/6
f 6/33/6 27/32/27 9/9/9
f 28/34/28 4/35/4 29/36/29
f 28/34/28 29/36/29 30/37/30
f 30/37/30 29/36/29 31/38/31
f 30/37/30 31/38/31 32/39/32
f 32/39/32 31/38/31 33/40/33
f 32/39/32 33/40/33 34/41/34
f 34/41/34 33/40/33 35/42/35
f 34/41/34 35/42/35 36/43/36
f 36/43/36 35/42/35 37/44/37
f 36/43/36 37/44/37 38/45/38
f 38/45/38 37/44/37 39/46/39
f 29/47/29 4/4/4 6/6/6
f 29/47/29 6/6/6 8/8/8
f 8/8/8 6/6/6 9/9/9
f 16/17/16 40/48/40 14/15/14
f 32/39/32 41/49/41 30/37/30
f 2/50/2 1/51/1 42/52/42
f 42/52/42 1/51/1 43/53/43
f 42/52/42 43/53/43 44/54/44
f 44/54/44 43/53/43 45/55/45
f 44/54/44 45/55/45 46/56/46
f 46/56/46 45/55/45 47/57/47
f 46/56/46 47/57/47 4/58/4
f 4/58/4 47/57/47 5/59/5
f 24/60/24 2/50/2 48/61/48
f 48/61/48 2/50/2 42/52/42
f 48/61/48 42/52/42 49/62/49
f 49/62/49 42/52/42 44/54/44
f 49/62/49 44/54/44 50/63/50
f 50/63/50 44/54/44 46/56/46
f 50/63/50 46/56/46 28/64/28
f 28/64/28 46/56/46 4/58/4
f 1/51/1 12/65/12 43/53/43
f 43/53/43 12/65/12 51/66/51
f 43/53/43 51/66/51 45/55/45
f 45/55/45 51/66/51 52/67/52
f 45/55/45 52/67/52 47/57/47
f 47/57/47 52/67/52 53/68/53
f 47/57/47 53/68/53 5/59/5
f 5/59/5 53/68/53 26/69/26
f 26/70/26 53/71/53 54/72/54
f 26/70/26 54/72/54 27/73/27
f 27/73/27 54/72/54 55/74/55
f 27/73/27 55/74/55 39/75/39
f 39/75/39 55/74/55 56/76/56
f 39/75/39 56/76/56 57/77/57
f 57/77/57 56/76/56 58/78/58
f 57/77/57 58/78/58 59/79/59
f 59/79/59 58/78/58 60/80/60
f 59/79/59 60/80/60 41/81/41
f 41/81/41 60/80/60 61/82/61
f 41/81/41 61/82/61 30/83/30
f 30/83/30 61/82/61 50/84/50
f 30/83/30 50/84/50 28/85/28
f 24/86/24 48/87/48 62/88/62
f 24/86/24 62/88/62 25/89/25
f 25/89/25 62/88/62 63/90/63
f 25/89/25 63/90/63 23/91/23
f 23/91/23 63/90/63 64/92/64
f 23/91/23 64/92/64 65/93/65
f 65/93/65 64/92/64 66/94/66
f 65/93/65 66/94/66 67/95/67
f 67/95/67 66/94/66 68/96/68
f 67/95/67 68/96/68 40/97/40
f 40/97/40 68/96/68 69/98/69
f 40/97/40 69/98/69 14/99/14
f 14/99/14 69/98/69 51/100/51
f 14/99/14 51/100/51 12/101/12
f 22/23/22 23/91/23 65/93/65
f 22/23/22 65/93/65 20/21/20
f 20/21/20 65/93/65 67/95/67
f 20/21/20 67/95/67 18/19/18
f 18/19/18 67/95/67 40/97/40
f 18/19/18 40/97/40 16/17/16
f 41/81/41 32/39/32 34/41/34
f 41/81/41 34/41/34 59/79/59
f 59/79/59 34/41/34 36/43/36
f 59/79/59 36/43/36 57/77/57
f 57/77/57 36/43/36 38/45/38
f 57/77/57 38/45/38 39/75/39
f 27/32/27 39/46/39 37/44/37
f 27/32/27 37/44/37 9/9/9
f 9/9/9 37/44/37 35/42/35
f 9/9/9 35/42/35 7/7/7
f 7/7/7 35/42/35 33/40/33
f 7/7/7 33/40/33 70/102/70
f 70/102/70 33/40/33 31/38/31
f 70/102/70 31/38/31 8/8/8
f 8/8/8 31/38/31 29/36/29
f 7/7/7 70/102/70 8/8/8
f 17/18/17 15/16/15 71/103/71
f 71/103/71 15/16/15 10/10/10
f 71/103/71 10/10/10 72/104/72
f 72/104/72 10/10/10 11/11/11
f 72/104/72 11/11/11 19/20/19
f 19/20/19 11/11/11 21/22/21
f 13/14/13 10/10/10 15/16/15
f 21/22/21 11/11/11 25/27/25
f 21/22/21 25/27/25 23/24/23
f 49/105/49 50/84/50 61/82/61
f 49/105/49 61/82/61 73/106/73
f 73/106/73 61/82/61 60/80/60
f 73/106/73 60/80/60 74/107/74
f 74/107/74 60/80/60 58/78/58
f 74/107/74 58/78/58 75/108/75
f 75/108/75 58/78/58 56/76/56
f 75/108/75 56/76/56 76/109/76
f 76/109/76 56/76/56 55/74/55
f 76/109/76 55/74/55 77/110/77
f 77/110/77 55/74/55 54/72/54
f 77/110/77 54/72/54 78/111/78
f 78/111/78 54/72/54 53/71/53
f 78/111/78 53/71/53 52/112/52
f 48/87/48 49/105/49 73/106/73
f 48/87/48 73/106/73 62/88/62
f 62/88/62 73/106/73 74/107/74
f 62/88/62 74/107/74 63/90/63
f 63/90/63 74/107/74 75/108/75
f 63/90/63 75/108/75 64/92/64
f 64/92/64 75/108/75 76/109/76
f 64/92/64 76/109/76 66/94/66
f 66/94/66 76/109/76 77/110/77
f 66/94/66 77/110/77 68/96/68
f 68/96/68 77/110/77 78/111/78
f 68/96/68 78/111/78 69/98/69
f 69/98/69 78/111/78 52/112/52
f 69/98/69 52/112/52 51/100/51
f 17/18/17 71/103/71 72/104/72
f 17/18/17 72/104/72 19/20/19