# Blender v2.93.1 OBJ File: ''
# www.blender.org
mtllib untitled13.mtl
o book
v 3.546761 1.396433 -2.372308
v -3.573977 1.559043 -2.296661
v -3.744288 1.586159 -2.439812
v -3.594882 0.584192 -2.294290
v 3.524822 0.420876 -2.368659
v 3.692226 0.393689 -2.514842
v 3.458975 0.234076 -2.212695
v -3.771115 0.402781 -2.435880
v 3.688452 0.232061 -2.515041
v 3.719498 1.584350 -2.519360
v -3.740069 1.755075 -2.440199
v 3.595665 1.408811 2.229031
v 3.715380 1.415062 -2.519088
v 3.764815 1.428320 2.205349
v 3.768070 1.596749 2.157333
v 3.772101 1.597786 2.405536
v 3.537419 1.606034 2.186346
v 3.539234 1.605941 2.419119
v -3.457734 1.766604 2.259230
v -3.455914 1.766516 2.492003
v -3.690118 1.768048 2.235921
v -3.687819 1.768648 2.483992
v -3.690895 1.599959 2.559040
v -3.524034 1.572132 2.303400
v -3.694406 1.598908 2.285215
v 3.574418 0.434102 2.230697
v 3.741863 0.406214 2.209354
v -3.547448 0.596373 2.307742
v -3.767588 0.564190 -2.436506
v -3.718052 0.577076 2.287805
v -3.721946 0.415272 2.242338
v -3.718261 0.416447 2.489841
v -3.488431 0.406376 2.265430
v -3.487165 0.407163 2.497744
v 3.506018 0.246085 2.191136
v 3.509117 0.246938 2.423457
v 3.737622 0.244553 2.163182
v 3.741307 0.245727 2.410686
v 3.745267 0.407627 2.483300
v 3.769020 1.429092 2.480589
v -3.713852 0.577843 2.563046
v -3.578468 1.315639 -2.263755
v 3.542712 1.152520 -2.338823
v -3.585472 1.071470 -2.295896
v 3.535618 0.908723 -2.370833
v -3.589712 0.828295 -2.262161
v 3.531222 0.664953 -2.338058
v -3.528895 1.328206 2.366271
v -3.535314 1.084602 2.362949
v -3.540139 0.840867 2.367866
v 3.591490 1.165738 2.289914
v 3.585765 0.921856 2.288002
v 3.580700 0.677886 2.292094
v 3.748767 0.662262 2.271055
v 3.751138 0.662698 2.523590
v 3.521089 0.683971 2.530212
v 3.514162 0.443980 2.493438
v -3.475434 0.843972 2.603669
v -3.481093 0.604922 2.566447
v -3.708082 0.833286 2.603451
v -3.709667 0.833327 2.348813
v -3.698704 1.344024 2.347450
v -3.695746 1.344558 2.601519
v -3.464444 1.323289 2.602425
v -3.459001 1.563194 2.563839
v 3.530459 1.162495 2.528711
v 3.536242 1.402253 2.490825
v 3.763827 1.173832 2.522358
v 3.759830 1.172593 2.269571
v -3.535475 0.394372 -2.138390
v 3.490722 1.593884 -2.216774
v -3.504079 1.754316 -2.143186
v -3.704309 1.088566 2.347719
v -3.701334 1.089360 2.624482
v -3.470283 1.083462 2.622207
v 3.525546 0.923735 2.547334
v 3.757302 0.917558 2.546474
v 3.753879 0.917267 2.269130
vt 0.021200 0.373400
vt 0.019600 0.928400
vt 0.044600 0.929400
vt 0.979500 0.923500
vt 0.980000 0.372100
vt 0.953700 0.372700
vt 0.906100 0.399200
vt 0.927100 0.925300
vt 0.928400 0.373900
vt 0.070600 0.373100
vt 0.072900 0.930000
vt 0.400200 0.323300
vt 0.070900 0.322200
vt 0.070500 0.347400
vt 0.400400 0.348000
vt 0.400600 0.371800
vt 0.425000 0.371300
vt 0.400900 0.398600
vt 0.425100 0.399600
vt 0.399200 0.902600
vt 0.425300 0.902300
vt 0.399900 0.928200
vt 0.425100 0.928200
vt 0.425500 0.953800
vt 0.071600 0.978500
vt 0.400400 0.979200
vt 0.399600 0.954300
vt 0.071700 0.954700
vt 0.046800 0.373000
vt 0.929500 0.321100
vt 0.601600 0.322300
vt 0.600800 0.347800
vt 0.929100 0.347300
vt 0.599700 0.977200
vt 0.927000 0.977100
vt 0.926800 0.952200
vt 0.599000 0.951400
vt 0.600600 0.925200
vt 0.579700 0.925300
vt 0.600800 0.903500
vt 0.579700 0.902800
vt 0.601100 0.398700
vt 0.578400 0.398900
vt 0.600900 0.372600
vt 0.577500 0.372900
vt 0.577100 0.347200
vt 0.954100 0.924900
vt 0.425200 0.348300
vt 0.579900 0.953400
vt 0.378300 0.235300
vt 0.642400 0.235300
vt 0.366200 0.198200
vt 0.641200 0.197900
vt 0.360300 0.160600
vt 0.638700 0.160800
vt 0.357400 0.123500
vt 0.638900 0.123200
vt 0.358300 0.086100
vt 0.638000 0.086100
vt 0.084000 0.234200
vt 0.080600 0.197400
vt 0.080900 0.160700
vt 0.080600 0.123900
vt 0.084000 0.087100
vt 0.891200 0.234200
vt 0.904700 0.197500
vt 0.911700 0.160700
vt 0.915400 0.123900
vt 0.912200 0.087200
vt 0.551900 0.323200
vt 0.526100 0.322000
vt 0.526800 0.345700
vt 0.553100 0.346500
vt 0.526500 0.373700
vt 0.552800 0.372600
vt 0.528200 0.399300
vt 0.553400 0.399900
vt 0.527600 0.901600
vt 0.551200 0.902700
vt 0.526100 0.927000
vt 0.551100 0.927600
vt 0.525900 0.952900
vt 0.550600 0.953600
vt 0.525400 0.978800
vt 0.552600 0.977000
vt 0.448700 0.978500
vt 0.474400 0.978000
vt 0.473800 0.953800
vt 0.448500 0.953000
vt 0.475100 0.929000
vt 0.448900 0.929000
vt 0.474500 0.902300
vt 0.448700 0.902300
vt 0.475100 0.397800
vt 0.452000 0.398700
vt 0.475600 0.373400
vt 0.450500 0.372800
vt 0.476300 0.345500
vt 0.451100 0.344800
vt 0.476800 0.321700
vt 0.451200 0.321300
vt 0.905600 0.902900
vt 0.096300 0.397900
vt 0.097700 0.902100
vt 0.499600 0.978100
vt 0.499600 0.953600
vt 0.500600 0.927300
vt 0.501600 0.902000
vt 0.501100 0.397500
vt 0.501000 0.373300
vt 0.501000 0.347400
vt 0.500900 0.321800
vn 0.2920 -0.8889 -0.3530
vn -0.3415 -0.8737 -0.3465
vn -0.6115 -0.5352 -0.5828
vn -0.3003 0.8860 -0.3532
vn 0.3337 0.8719 -0.3583
vn 0.5984 0.5346 -0.5967
vn -0.0159 -0.9999 -0.0020
vn -0.5974 -0.5632 -0.5709
vn 0.5589 -0.5880 -0.5847
vn 0.5859 0.5599 -0.5859
vn -0.5707 0.5869 -0.5743
vn 0.5781 -0.6080 -0.5442
vn 0.5724 -0.5640 -0.5952
vn 0.8698 -0.4106 -0.2735
vn 0.7284 0.6851 -0.0117
vn 0.6374 0.6509 0.4123
vn 0.0307 0.9995 -0.0021
vn 0.0322 0.8171 0.5757
vn 0.0146 0.9999 -0.0013
vn 0.0057 0.8135 0.5815
vn -0.6945 0.7195 0.0062
vn -0.5897 0.6756 0.4425
vn -0.6626 0.2339 0.7115
vn -0.6170 -0.5830 -0.5286
vn -0.8967 -0.3637 -0.2523
vn 0.6080 0.5779 -0.5444
vn 0.8903 0.3640 -0.2735
vn -0.5867 0.6084 -0.5345
vn -0.5861 0.5596 -0.5860
vn -0.8772 0.4091 -0.2514
vn -0.7279 -0.6856 0.0115
vn -0.6264 -0.6509 0.4289
vn -0.0309 -0.9995 0.0036
vn -0.0199 -0.8163 0.5772
vn -0.0145 -0.9999 0.0034
vn 0.0074 -0.8132 0.5820
vn 0.6963 -0.7177 -0.0057
vn 0.6030 -0.6718 0.4301
vn 0.6784 -0.2321 0.6971
vn 0.6981 0.1862 0.6914
vn -0.6777 -0.1864 0.7113
vn -0.7443 0.0164 -0.6677
vn 0.7320 -0.0188 -0.6811
vn -0.6867 0.0133 -0.7268
vn 0.6696 -0.0169 -0.7425
vn -0.7454 0.0120 -0.6665
vn 0.7304 -0.0192 -0.6827
vn -0.6487 -0.0740 -0.7574
vn -0.6799 0.0170 -0.7331
vn -0.6437 0.0932 -0.7596
vn 0.6311 -0.1003 -0.7692
vn 0.6649 -0.0194 -0.7467
vn 0.6337 0.0713 -0.7703
vn 0.6954 0.0722 -0.7150
vn 0.7064 -0.1017 0.7004
vn 0.0137 -0.1114 0.9937
vn 0.0120 -0.2479 0.9687
vn 0.0067 -0.1155 0.9933
vn 0.0092 -0.2387 0.9711
vn -0.6960 -0.0702 0.7146
vn -0.7001 0.0996 -0.7071
vn -0.7071 -0.0789 -0.7027
vn -0.6897 0.1056 0.7163
vn 0.0096 0.1202 0.9927
vn 0.0098 0.2504 0.9681
vn 0.0150 0.1180 0.9929
vn 0.0147 0.2416 0.9703
vn 0.7139 0.0739 0.6963
vn 0.6900 -0.1056 -0.7161
vn -0.0295 -0.9996 -0.0016
vn 0.0287 0.9996 -0.0070
vn 0.0165 0.9998 -0.0074
vn -0.6762 0.0166 -0.7365
vn -0.6806 0.0201 0.7324
vn 0.0093 0.0033 1.0000
vn 0.0096 0.0008 1.0000
vn 0.6934 -0.0182 0.7203
vn 0.6589 -0.0192 -0.7520
usemtl book
s 1
f 1/1/1 2/2/2 3/3/3
f 4/4/4 5/5/5 6/6/6
f 7/7/7 8/8/8 9/9/9
f 10/10/10 3/3/3 11/11/11
f 12/12/12 1/13/1 13/14/13
f 12/12/12 13/14/13 14/15/14
f 14/15/14 13/14/13 15/16/15
f 14/15/14 15/16/15 16/17/16
f 16/17/16 15/16/15 17/18/17
f 16/17/16 17/18/17 18/19/18
f 18/19/18 17/18/17 19/20/19
f 18/19/18 19/20/19 20/21/20
f 20/21/20 19/20/19 21/22/21
f 20/21/20 21/22/21 22/23/22
f 22/23/22 21/22/21 23/24/23
f 2/25/2 24/26/24 25/27/25
f 2/25/2 25/27/25 3/28/3
f 3/28/3 25/27/25 11/11/11
f 3/3/3 10/10/10 13/29/13
f 13/29/13 1/1/1 3/3/3
f 5/30/5 26/31/26 27/32/27
f 5/30/5 27/32/27 6/33/6
f 6/33/6 27/32/27 9/9/9
f 28/34/28 4/35/4 29/36/29
f 28/34/28 29/36/29 30/37/30
f 30/37/30 29/36/29 31/38/31
f 30/37/30 31/38/31 32/39/32
f 32/39/32 31/38/31 33/40/33
f 32/39/32 33/40/33 34/41/34
f 34/41/34 33/40/33 35/42/35
f 34/41/34 35/42/35 36/43/36
f 36/43/36 35/42/35 37/44/37
f 36/43/36 37/44/37 38/45/38
f 38/45/38 37/44/37 39/46/39
f 29/47/29 4/4/4 6/6/6
f 29/47/29 6/6/6 8/8/8
f 8/8/8 6/6/6 9/9/9
f 16/17/16 40/48/40 14/15/14
f 32/39/32 41/49/41 30/37/30
f 2/50/2 1/51/1 42/52/42
f 42/52/42 1/51/1 43/53/43
f 42/52/42 43/53/43 44/54/44
f 44/54/44 43/53/43 45/55/45
f 44/54/44 45/55/45 46/56/46
f 46/56/46 45/55/45 47/57/47
f 46/56/46 47/57/47 4/58/4
f 4/58/4 47/57/47 5/59/5
f 24/60/24 2/50/2 48/61/48
f 48/61/48 2/50/2 42/52/42
f 48/61/48 42/52/42 49/62/49
f 49/62/49 42/52/42 44/54/44
f 49/62/49 44/54/44 50/63/50
f 50/63/50 44/54/44 46/56/46
f 50/63/50 46/56/46 28/64/28
f 28/64/28 46/56/46 4/58/4
f 1/51/1 12/65/12 43/53/43
f 43/53/43 12/65/12 51/66/51
f 43/53/43 51/66/51 45/55/45
f 45/55/45 51/66/51 52/67/52
f 45/55/45 52/67/52 47/57/47
f 47/57/47 52/67/52 53/68/53
f 47/57/47 53/68/53 5/59/5
f 5/59/5 53/68/53 26/69/26
f 26/70/26 53/71/53 54/72/54
f 26/70/26 54/72/54 27/73/27
f 27/73/27 54/72/54 55/74/55
f 27/73/27 55/74/55 39/75/39
f 39/75/39 55/74/55 56/76/56
f 39/75/39 56/76/56 57/77/57
f 57/77/57 56/76/56 58/78/58
f 57/77/57 58/78/58 59/79/59
f 59/79/59 58/78/58 60/80/60
f 59/79/59 60/80/60 41/81/41
f 41/81/41 60/80/60 61/82/61
f 41/81/41 61/82/61 30/83/30
f 30/83/30 61/82/61 50/84/50
f 30/83/30 50/84/50 28/85/28
f 24/86/24 48/87/48 62/88/62
f 24/86/24 62/88/62 25/89/25
f 25/89/25 62/88/62 63/90/63
f 25/89/25 63/90/63 23/91/23
f 23/91/23 63/90/63 64/92/64
f 23/91/23 64/92/64 65/93/65
f 65/93/65 64/92/64 66/94/66
f 65/93/65 66/94/66 67/95/67
f 67/95/67 66/94/66 68/96/68
f 67/95/67 68/96/68 40/97/40
f 40/97/40 68/96/68 69/98/69
f 40/97/40 69/98/69 14/99/14
f 14/99/14 69/98/69 51/100/51
f 14/99/14 51/100/51 12/101/12
f 22/23/22 23/91/23 65/93/65
f 22/23/22 65/93/65 20/21/20
f 20/21/20 65/93/65 67/95/67
f 20/21/20 67/95/67 18/19/18
f 18/19/18 67/95/67 40/97/40
f 18/19/18 40/97/40 16/17/16
f 41/81/41 32/39/32 34/41/34
f 41/81/41 34/41/34 59/79/59
f 59/79/59 34/41/34 36/43/36
f 59/79/59 36/43/36 57/77/57
f 57/77/57 36/43/36 38/45/38
f 57/77/57 38/45/38 39/75/39
f 27/32/27 39/46/39 37/44/37
f 27/32/27 37/44/37 9/9/9
f 9/9/9 37/44/37 35/42/35
f 9/9/9 35/42/35 7/7/7
f 7/7/7 35/42/35 33/40/33
f 7/7/7 33/40/33 70/102/70
f 70/102/70 33/40/33 31/38/31
f 70/102/70 31/38/31 8/8/8
f 8/8/8 31/38/31 29/36/29
f 7/7/7 70/102/70 8/8/8
f 17/18/17 15/16/15 71/103/71
f 71/103/71 15/16/15 10/10/10
f 71/103/71 10/10/10 72/104/72
f 72/104/72 10/10/10 11/11/11
f 72/104/72 11/11/11 19/20/19
f 19/20/19 11/11/11 21/22/21
f 13/14/13 10/10/10 15/16/15
f 21/22/21 11/11/11 25/27/25
f 21/22/21 25/27/25 23/24/23
f 49/105/49 50/84/50 61/82/61
f 49/105/49 61/82/61 73/106/73
f 73/106/73 61/82/61 60/80/60
f 73/106/73 60/80/60 74/107/74
f 74/107/74 60/80/60 58/78/58
f 74/107/74 58/78/58 75/108/75
f 75/108/75 58/78/58 56/76/56
f 75/108/75 56/76/56 76/109/76
f 76/109/76 56/76/56 55/74/55
f 76/109/76 55/74/55 77/110/77
f 77/110/77 55/74/55 54/72/54
f 77/110/77 54/72/54 78/111/78
f 78/111/78 54/72/54 53/71/53
f 78/111/78 53/71/53 52/112/52
f 48/87/48 49/105/49 73/106/73
f 48/87/48 73/106/73 62/88/62
f 62/88/62 73/106/73 74/107/74
f 62/88/62 74/107/74 63/90/63
f 63/90/63 74/107/74 75/108/75
f 63/90/63 75/108/75 64/92/64
f 64/92/64 75/108/75 76/109/76
f 64/92/64 76/109/76 66/94/66
f 66/94/66 76/109/76 77/110/77
f 66/94/66 77/110/77 68/96/68
f 68/96/68 77/110/77 78/111/78
f 68/96/68 78/111/78 69/98/69
f 69/98/69 78/111/78 52/112/52
f 69/98/69 52/112/52 51/100/51
f 17/18/17 71/103/71 72/104/72
f 17/18/17 72/104/72 19/20/19
