# Blender v2.93.1 OBJ File: ''
# www.blender.org
mtllib untitled14.mtl
o book
v 2.362057 1.396433 3.553596
v 2.306970 1.559043 -3.567331
v 2.450612 1.586159 -3.737228
v 2.304660 0.584192 -3.588243
v 2.358472 0.420876 3.531646
v 2.504171 0.393689 3.699471
v 2.202698 0.234076 3.465349
v 2.446758 0.402781 -3.764066
v 2.504381 0.232061 3.695698
v 2.508610 1.584350 3.726757
v 2.450987 1.755075 -3.733008
v -2.239404 1.408811 3.589214
v 2.508350 1.415062 3.722638
v -2.216210 1.428320 3.758432
v -2.168204 1.596749 3.761825
v -2.416417 1.597786 3.765140
v -2.196551 1.606034 3.531092
v -2.429328 1.605941 3.532234
v -2.249237 1.766604 -3.464243
v -2.482015 1.766516 -3.463095
v -2.225257 1.768048 -3.696558
v -2.473334 1.768648 -3.694976
v -2.548373 1.599959 -3.698268
v -2.293216 1.572132 -3.530670
v -2.274539 1.598908 -3.700989
v -2.241008 0.434102 3.567962
v -2.220149 0.406214 3.735468
v -2.297490 0.596373 -3.554096
v 2.447374 0.564190 -3.760537
v -2.277061 0.577076 -3.724642
v -2.231582 0.415272 -3.728405
v -2.479095 0.416447 -3.725434
v -2.255348 0.406376 -3.494957
v -2.487665 0.407163 -3.494362
v -2.201250 0.246085 3.499677
v -2.433579 0.246938 3.502105
v -2.173965 0.244553 3.731361
v -2.421478 0.245727 3.734331
v -2.494103 0.407627 3.738081
v -2.491461 1.429092 3.761842
v -2.552312 0.577843 -3.721237
v 2.274077 1.315639 -3.571917
v 2.328584 1.152520 3.549450
v 2.306239 1.071470 -3.578828
v 2.360615 0.908723 3.542449
v 2.272516 0.828295 -3.583165
v 2.327852 0.664953 3.537958
v -2.356072 1.328206 -3.535712
v -2.352732 1.084602 -3.542122
v -2.357635 0.840867 -3.546961
v -2.300274 1.165738 3.584863
v -2.298346 0.921856 3.579144
v -2.302423 0.677886 3.574067
v -2.281869 0.662262 3.742194
v -2.534410 0.662698 3.743836
v -2.540368 0.683971 3.513769
v -2.503574 0.443980 3.506948
v -2.593623 0.843972 -3.482937
v -2.556386 0.604922 -3.488488
v -2.592734 0.833286 -3.715583
v -2.338093 0.833327 -3.716433
v -2.336761 1.344024 -3.705466
v -2.590838 1.344558 -3.703242
v -2.592412 1.323289 -3.471943
v -2.553841 1.563194 -3.466389
v -2.538894 1.162495 3.523143
v -2.501025 1.402253 3.529036
v -2.533215 1.173832 3.756529
v -2.280417 1.172593 3.753261
v 2.148589 0.394372 -3.529286
v 2.206686 1.593884 3.497108
v 2.153294 1.754316 -3.497877
v -2.337014 1.088566 -3.711072
v -2.613784 1.089360 -3.708896
v -2.612176 1.083462 -3.477839
v -2.557503 0.923735 3.518176
v -2.557312 0.917558 3.749934
v -2.279959 0.917267 3.747312
vt 0.021200 0.373400
vt 0.019600 0.928400
vt 0.044600 0.929400
vt 0.979500 0.923500
vt 0.980000 0.372100
vt 0.953700 0.372700
vt 0.906100 0.399200
vt 0.927100 0.925300
vt 0.928400 0.373900
vt 0.070600 0.373100
vt 0.072900 0.930000
vt 0.400200 0.323300
vt 0.070900 0.322200
vt 0.070500 0.347400
vt 0.400400 0.348000
vt 0.400600 0.371800
vt 0.425000 0.371300
vt 0.400900 0.398600
vt 0.425100 0.399600
vt 0.399200 0.902600
vt 0.425300 0.902300
vt 0.399900 0.928200
vt 0.425100 0.928200
vt 0.425500 0.953800
vt 0.071600 0.978500
vt 0.400400 0.979200
vt 0.399600 0.954300
vt 0.071700 0.954700
vt 0.046800 0.373000
vt 0.929500 0.321100
vt 0.601600 0.322300
vt 0.600800 0.347800
vt 0.929100 0.347300
vt 0.599700 0.977200
vt 0.927000 0.977100
vt 0.926800 0.952200
vt 0.599000 0.951400
vt 0.600600 0.925200
vt 0.579700 0.925300
vt 0.600800 0.903500
vt 0.579700 0.902800
vt 0.601100 0.398700
vt 0.578400 0.398900
vt 0.600900 0.372600
vt 0.577500 0.372900
vt 0.577100 0.347200
vt 0.954100 0.924900
vt 0.425200 0.348300
vt 0.579900 0.953400
vt 0.378300 0.235300
vt 0.642400 0.235300
vt 0.366200 0.198200
vt 0.641200 0.197900
vt 0.360300 0.160600
vt 0.638700 0.160800
vt 0.357400 0.123500
vt 0.638900 0.123200
vt 0.358300 0.086100
vt 0.638000 0.086100
vt 0.084000 0.234200
vt 0.080600 0.197400
vt 0.080900 0.160700
vt 0.080600 0.123900
vt 0.084000 0.087100
vt 0.891200 0.234200
vt 0.904700 0.197500
vt 0.911700 0.160700
vt 0.915400 0.123900
vt 0.912200 0.087200
vt 0.551900 0.323200
vt 0.526100 0.322000
vt 0.526800 0.345700
vt 0.553100 0.346500
vt 0.526500 0.373700
vt 0.552800 0.372600
vt 0.528200 0.399300
vt 0.553400 0.399900
vt 0.527600 0.901600
vt 0.551200 0.902700
vt 0.526100 0.927000
vt 0.551100 0.927600
vt 0.525900 0.952900
vt 0.550600 0.953600
vt 0.525400 0.978800
vt 0.552600 0.977000
vt 0.448700 0.978500
vt 0.474400 0.978000
vt 0.473800 0.953800
vt 0.448500 0.953000
vt 0.475100 0.929000
vt 0.448900 0.929000
vt 0.474500 0.902300
vt 0.448700 0.902300
vt 0.475100 0.397800
vt 0.452000 0.398700
vt 0.475600 0.373400
vt 0.450500 0.372800
vt 0.476300 0.345500
vt 0.451100 0.344800
vt 0.476800 0.321700
vt 0.451200 0.321300
vt 0.905600 0.902900
vt 0.096300 0.397900
vt 0.097700 0.902100
vt 0.499600 0.978100
vt 0.499600 0.953600
vt 0.500600 0.927300
vt 0.501600 0.902000
vt 0.501100 0.397500
vt 0.501000 0.373300
vt 0.501000 0.347400
vt 0.500900 0.321800
vn 0.3521 -0.8889 0.2930
vn 0.3475 -0.8737 -0.3405
vn 0.5845 -0.5352 -0.6098
vn 0.3541 0.8860 -0.2993
vn 0.3573 0.8719 0.3347
vn 0.5950 0.5346 0.6001
vn 0.0020 -0.9999 -0.0159
vn 0.5726 -0.5632 -0.5957
vn 0.5831 -0.5880 0.5606
vn 0.5842 0.5599 0.5875
vn 0.5760 0.5869 -0.5691
vn 0.5425 -0.6080 0.5797
vn 0.5935 -0.5640 0.5741
vn 0.2710 -0.4106 0.8706
vn 0.0096 0.6851 0.7284
vn -0.4142 0.6509 0.6362
vn 0.0020 0.9995 0.0307
vn -0.5757 0.8171 0.0305
vn 0.0012 0.9999 0.0146
vn -0.5815 0.8135 0.0040
vn -0.0042 0.7195 -0.6945
vn -0.4408 0.6756 -0.5910
vn -0.7096 0.2339 -0.6647
vn 0.5304 -0.5830 -0.6154
vn 0.2549 -0.3637 -0.8960
vn 0.5426 0.5779 0.6096
vn 0.2709 0.3640 0.8911
vn 0.5362 0.6084 -0.5852
vn 0.5877 0.5595 -0.5844
vn 0.2539 0.4091 -0.8764
vn -0.0094 -0.6856 -0.7279
vn -0.4271 -0.6509 -0.6276
vn -0.0035 -0.9995 -0.0309
vn -0.5772 -0.8163 -0.0216
vn -0.0033 -0.9999 -0.0146
vn -0.5820 -0.8132 0.0057
vn 0.0037 -0.7177 0.6963
vn -0.4319 -0.6718 0.6018
vn -0.6990 -0.2321 0.6764
vn -0.6934 0.1862 0.6961
vn -0.7094 -0.1864 -0.6797
vn 0.6698 0.0164 -0.7424
vn 0.6789 -0.0188 0.7340
vn 0.7288 0.0133 -0.6846
vn 0.7406 -0.0169 0.6718
vn 0.6687 0.0120 -0.7435
vn 0.6806 -0.0191 0.7324
vn 0.7593 -0.0740 -0.6465
vn 0.7351 0.0170 -0.6778
vn 0.7614 0.0932 -0.6415
vn 0.7674 -0.1003 0.6333
vn 0.7448 -0.0194 0.6670
vn 0.7684 0.0713 0.6359
vn 0.7129 0.0722 0.6975
vn -0.7025 -0.1017 0.7044
vn -0.9937 -0.1114 0.0109
vn -0.9688 -0.2479 0.0092
vn -0.9933 -0.1155 0.0038
vn -0.9711 -0.2387 0.0064
vn -0.7126 -0.0702 -0.6980
vn 0.7091 0.0996 -0.6981
vn 0.7048 -0.0789 -0.7050
vn -0.7143 0.1056 -0.6918
vn -0.9927 0.1202 0.0067
vn -0.9681 0.2504 0.0070
vn -0.9929 0.1180 0.0121
vn -0.9703 0.2416 0.0119
vn -0.6984 0.0739 0.7119
vn 0.7141 -0.1056 0.6920
vn 0.0017 -0.9996 -0.0295
vn 0.0069 0.9996 0.0287
vn 0.0073 0.9998 0.0165
vn 0.7384 0.0166 -0.6741
vn -0.7304 0.0201 -0.6827
vn -1.0000 0.0033 0.0064
vn -1.0000 0.0008 0.0067
vn -0.7223 -0.0182 0.6913
vn 0.7501 -0.0192 0.6610
usemtl book
s 1
f 1/1/1 2/2/2 3/3/3
f 4/4/4 5/5/5 6/6/6
f 7/7/7 8/8/8 9/9/9
f 10/10/10 3/3/3 11/11/11
f 12/12/12 1/13/1 13/14/13
f 12/12/12 13/14/13 14/15/14
f 14/15/14 13/14/13 15/16/15
f 14/15/14 15/16/15 16/17/16
f 16/17/16 15/16/15 17/18/17
f 16/17/16 17/18/17 18/19/18
f 18/19/18 17/18/17 19/20/19
f 18/19/18 19/20/19 20/21/20
f 20/21/20 19/20/19 21/22/21
f 20/21/20 21/22/21 22/23/22
f 22/23/22 21/22/21 23/24/23
f 2/25/2 24/26/24 25/27/25
f 2/25/2 25/27/25 3/28/3
f 3/28/3 25/27/25 11/11/11
f 3/3/3 10/10/10 13/29/13
f 13/29/13 1/1/1 3/3/3
f 5/30/5 26/31/26 27/32/27
f 5/30/5 27/32/27 6/33/6
f 6/33/6 27/32/27 9/9/9
f 28/34/28 4/35/4 29/36/29
f 28/34/28 29/36/29 30/37/30
f 30/37/30 29/36/29 31/38/31
f 30/37/30 31/38/31 32/39/32
f 32/39/32 31/38/31 33/40/33
f 32/39/32 33/40/33 34/41/34
f 34/41/34 33/40/33 35/42/35
f 34/41/34 35/42/35 36/43/36
f 36/43/36 35/42/35 37/44/37
f 36/43/36 37/44/37 38/45/38
f 38/45/38 37/44/37 39/46/39
f 29/47/29 4/4/4 6/6/6
f 29/47/29 6/6/6 8/8/8
f 8/8/8 6/6/6 9/9/9
f 16/17/16 40/48/40 14/15/14
f 32/39/32 41/49/41 30/37/30
f 2/50/2 1/51/1 42/52/42
f 42/52/42 1/51/1 43/53/43
f 42/52/42 43/53/43 44/54/44
f 44/54/44 43/53/43 45/55/45
f 44/54/44 45/55/45 46/56/46
f 46/56/46 45/55/45 47/57/47
f 46/56/46 47/57/47 4/58/4
f 4/58/4 47/57/47 5/59/5
f 24/60/24 2/50/2 48/61/48
f 48/61/48 2/50/2 42/52/42
f 48/61/48 42/52/42 49/62/49
f 49/62/49 42/52/42 44/54/44
f 49/62/49 44/54/44 50/63/50
f 50/63/50 44/54/44 46/56/46
f 50/63/50 46/56/46 28/64/28
f 28/64/28 46/56/46 4/58/4
f 1/51/1 12/65/12 43/53/43
f 43/53/43 12/65/12 51/66/51
f 43/53/43 51/66/51 45/55/45
f 45/55/45 51/66/51 52/67/52
f 45/55/45 52/67/52 47/57/47
f 47/57/47 52/67/52 53/68/53
f 47/57/47 53/68/53 5/59/5
f 5/59/5 53/68/53 26/69/26
f 26/70/26 53/71/53 54/72/54
f 26/70/26 54/72/54 27/73/27
f 27/73/27 54/72/54 55/74/55
f 27/73/27 55/74/55 39/75/39
f 39/75/39 55/74/55 56/76/56
f 39/75/39 56/76/56 57/77/57
f 57/77/57 56/76/56 58/78/58
f 57/77/57 58/78/58 59/79/59
f 59/79/59 58/78/58 60/80/60
f 59/79/59 60/80/60 41/81/41
f 41/81/41 60/80/60 61/82/61
f 41/81/41 61/82/61 30/83/30
f 30/83/30 61/82/61 50/84/50
f 30/83/30 50/84/50 28/85/28
f 24/86/24 48/87/48 62/88/62
f 24/86/24 62/88/62 25/89/25
f 25/89/25 62/88/62 63/90/63
f 25/89/25 63/90/63 23/91/23
f 23/91/23 63/90/63 64/92/64
f 23/91/23 64/92/64 65/93/65
f 65/93/65 64/92/64 66/94/66
f 65/93/65 66/94/66 67/95/67
f 67/95/67 66/94/66 68/96/68
f 67/95/67 68/96/68 40/97/40
f 40/97/40 68/96/68 69/98/69
f 40/97/40 69/98/69 14/99/14
f 14/99/14 69/98/69 51/100/51
f 14/99/14 51/100/51 12/101/12
f 22/23/22 23/91/23 65/93/65
f 22/23/22 65/93/65 20/21/20
f 20/21/20 65/93/65 67/95/67
f 20/21/20 67/95/67 18/19/18
f 18/19/18 67/95/67 40/97/40
f 18/19/18 40/97/40 16/17/16
f 41/81/41 32/39/32 34/41/34
f 41/81/41 34/41/34 59/79/59
f 59/79/59 34/41/34 36/43/36
f 59/79/59 36/43/36 57/77/57
f 57/77/57 36/43/36 38/45/38
f 57/77/57 38/45/38 39/75/39
f 27/32/27 39/46/39 37/44/37
f 27/32/27 37/44/37 9/9/9
f 9/9/9 37/44/37 35/42/35
f 9/9/9 35/42/35 7/7/7
f 7/7/7 35/42/35 33/40/33
f 7/7/7 33/40/33 70/102/70
f 70/102/70 33/40/33 31/38/31
f 70/102/70 31/38/31 8/8/8
f 8/8/8 31/38/31 29/36/29
f 7/7/7 70/102/70 8/8/8
f 17/18/17 15/16/15 71/103/71
f 71/103/71 15/16/15 10/10/10
f 71/103/71 10/10/10 72/104/72
f 72/104/72 10/10/10 11/11/11
f 72/104/72 11/11/11 19/20/19
f 19/20/19 11/11/11 21/22/21
f 13/14/13 10/10/10 15/16/15
f 21/22/21 11/11/11 25/27/25
f 21/22/21 25/27/25 23/24/23
f 49/105/49 50/84/50 61/82/61
f 49/105/49 61/82/61 73/106/73
f 73/106/73 61/82/61 60/80/60
f 73/106/73 60/80/60 74/107/74
f 74/107/74 60/80/60 58/78/58
f 74/107/74 58/78/58 75/108/75
f 75/108/75 58/78/58 56/76/56
f 75/108/75 56/76/56 76/109/76
f 76/109/76 56/76/56 55/74/55
f 76/109/76 55/74/55 77/110/77
f 77/110/77 55/74/55 54/72/54
f 77/110/77 54/72/54 78/111/78
f 78/111/78 54/72/54 53/71/53
f 78/111/78 53/71/53 52/112/52
f 48/87/48 49/105/49 73/106/73
f 48/87/48 73/106/73 62/88/62
f 62/88/62 73/106/73 74/107/74
f 62/88/62 74/107/74 63/90/63
f 63/90/63 74/107/74 75/108/75
f 63/90/63 75/108/75 64/92/64
f 64/92/64 75/108/75 76/109/76
f 64/92/64 76/109/76 66/94/66
f 66/94/66 76/109/76 77/110/77
f 66/94/66 77/110/77 68/96/68
f 68/96/68 77/110/77 78/111/78
f 68/96/68 78/111/78 69/98/69
f 69/98/69 78/111/78 52/112/52
f 69/98/69 52/112/52 51/100/51
f 17/18/17 71/103/71 72/104/72
f 17/18/17 72/104/72 19/20/19
